<svg width="48" height="48" viewBox="0 0 48 48" fill="none" xmlns="http://www.w3.org/2000/svg">
<path d="M1.64281 1.64306C2.94456 0.341311 5.05511 0.341311 6.35686 1.64306L23.9998 19.286L41.6428 1.64306C42.9446 0.341311 45.0551 0.341311 46.3569 1.64306C47.6586 2.94481 47.6586 5.05536 46.3569 6.3571L28.7139 24.0001L46.3569 41.6431C47.6586 42.9448 47.6586 45.0554 46.3569 46.3571C45.0551 47.6589 42.9446 47.6589 41.6428 46.3571L23.9998 28.7141L6.35686 46.3571C5.05511 47.6589 2.94456 47.6589 1.64281 46.3571C0.341067 45.0554 0.341067 42.9448 1.64281 41.6431L19.2858 24.0001L1.64281 6.3571C0.341067 5.05536 0.341067 2.94481 1.64281 1.64306Z" fill="#0E4F69"/>
</svg>
